HIERARCHY
ROOT Hips
{
	OFFSET 0.00000 0.00000 0.00000
	CHANNELS 6 Xposition Yposition Zposition Zrotation Yrotation Xrotation 
	JOINT LHipJoint
	{
		OFFSET 0 0 0
		CHANNELS 3 Zrotation Yrotation Xrotation
		JOINT LeftUpLeg
		{
			OFFSET 1.75344 -1.53157 0.77399
			CHANNELS 3 Zrotation Yrotation Xrotation
			JOINT LeftLeg
			{
				OFFSET 2.25415 -6.19323 0.00000
				CHANNELS 3 Zrotation Yrotation Xrotation
				JOINT LeftFoot
				{
					OFFSET 2.30342 -6.32861 0.00000
					CHANNELS 3 Zrotation Yrotation Xrotation
					JOINT LeftToeBase
					{
						OFFSET 0.10958 -0.30108 1.49206
						CHANNELS 3 Zrotation Yrotation Xrotation
						End Site
						{
							OFFSET 0.00000 -0.00000 0.77783
						}
					}
				}
			}
		}
	}
	JOINT RHipJoint
	{
		OFFSET 0 0 0
		CHANNELS 3 Zrotation Yrotation Xrotation
		JOINT RightUpLeg
		{
			OFFSET -1.81912 -1.53156 0.77399
			CHANNELS 3 Zrotation Yrotation Xrotation
			JOINT RightLeg
			{
				OFFSET -2.22882 -6.12365 0.00000
				CHANNELS 3 Zrotation Yrotation Xrotation
				JOINT RightFoot
				{
					OFFSET -2.21943 -6.09785 0.00000
					CHANNELS 3 Zrotation Yrotation Xrotation
					JOINT RightToeBase
					{
						OFFSET -0.18931 -0.52012 1.59379
						CHANNELS 3 Zrotation Yrotation Xrotation
						End Site
						{
							OFFSET -0.00000 -0.00000 0.84686
						}
					}
				}
			}
		}
	}
	JOINT LowerBack
	{
		OFFSET 0 0 0
		CHANNELS 3 Zrotation Yrotation Xrotation
		JOINT Spine
		{
			OFFSET -0.00200 1.66634 -0.14248
			CHANNELS 3 Zrotation Yrotation Xrotation
			JOINT Spine1
			{
				OFFSET -0.00875 1.64542 0.09514
				CHANNELS 3 Zrotation Yrotation Xrotation
				JOINT Neck
				{
					OFFSET 0 0 0
					CHANNELS 3 Zrotation Yrotation Xrotation
					JOINT Neck1
					{
						OFFSET 0.02257 1.59605 0.00839
						CHANNELS 3 Zrotation Yrotation Xrotation
						JOINT Head
						{
							OFFSET -0.10214 1.57530 -0.23335
							CHANNELS 3 Zrotation Yrotation Xrotation
							End Site
							{
								OFFSET -0.03588 1.60717 -0.08062
							}
						}
					}
				}
				JOINT LeftShoulder
				{
					OFFSET 0 0 0
					CHANNELS 3 Zrotation Yrotation Xrotation
					JOINT LeftArm
					{
						OFFSET 2.54983 1.10186 0.40078
						CHANNELS 3 Zrotation Yrotation Xrotation
						JOINT LeftForeArm
						{
							OFFSET 4.28840 -0.00000 0.00000
							CHANNELS 3 Zrotation Yrotation Xrotation
							JOINT LeftHand
							{
								OFFSET 3.06552 -0.00000 -0.00000
								CHANNELS 3 Zrotation Yrotation Xrotation
								JOINT LeftFingerBase
								{
									OFFSET 0 0 0
									CHANNELS 3 Zrotation Yrotation Xrotation
									JOINT LeftHandIndex1
									{
										OFFSET 0.75304 -0.00000 0.00000
										CHANNELS 3 Zrotation Yrotation Xrotation
										End Site
										{
											OFFSET 0.60712 -0.00000 0.00000
										}
									}
								}
								JOINT LThumb
								{
									OFFSET 0 0 0
									CHANNELS 3 Zrotation Yrotation Xrotation
									End Site
									{
										OFFSET 0.61639 -0.00000 0.61639
									}
								}
							}
						}
					}
				}
				JOINT RightShoulder
				{
					OFFSET 0 0 0
					CHANNELS 3 Zrotation Yrotation Xrotation
					JOINT RightArm
					{
						OFFSET -2.60909 1.35448 0.21802
						CHANNELS 3 Zrotation Yrotation Xrotation
						JOINT RightForeArm
						{
							OFFSET -4.52172 -0.00000 -0.00000
							CHANNELS 3 Zrotation Yrotation Xrotation
							JOINT RightHand
							{
								OFFSET -2.89140 -0.00000 0.00000
								CHANNELS 3 Zrotation Yrotation Xrotation
								JOINT RightFingerBase
								{
									OFFSET 0 0 0
									CHANNELS 3 Zrotation Yrotation Xrotation
									JOINT RightHandIndex1
									{
										OFFSET -0.68054 -0.00000 0.00000
										CHANNELS 3 Zrotation Yrotation Xrotation
										End Site
										{
											OFFSET -0.54867 -0.00000 0.00000
										}
									}
								}
								JOINT RThumb
								{
									OFFSET 0 0 0
									CHANNELS 3 Zrotation Yrotation Xrotation
									End Site
									{
										OFFSET -0.55705 -0.00000 0.55705
									}
								}
							}
						}
					}
				}
			}
		}
	}
}
MOTION
Frames: 11
Frame Time: .0083333
8.1053 15.0724 15.1100 -178.3360 -2.2522 -177.8820 0.0000 0.0000 0.0000 -18.5145 -14.5138 -18.9182 5.3686 13.7873 42.3919 2.2446 0.8194 -28.6609 3.0258 -10.7367 -31.3970 0.0000 0.0000 0.0000 27.3732 8.5955 -15.4186 -3.8370 -11.9402 35.5208 -0.8985 -12.3717 -26.2962 -0.0332 1.1759 -3.2329 0.7899 1.2208 13.1666 -0.4985 1.7170 -3.4759 -1.3750 0.7389 -11.1628 -6.5618 -3.7707 -6.9372 6.1755 -4.7470 1.6775 2.9834 -2.2932 2.1100 0.0000 0.0000 0.0000 -86.0042 6.6671 37.6712 26.9298 -38.1122 -9.4558 -0.0000 -0.0000 10.3883 9.0823 -36.6156 -5.4465 -7.1250 0.0000 -0.0000 -13.1125 -6.1324 14.8128 0.0000 0.0000 0.0000 83.7058 -3.9294 49.4360 -23.8437 34.9986 -7.6167 0.0000 0.0000 16.3095 -15.2189 -54.8643 12.5428 7.1250 -0.0000 -0.0000 73.6476 -77.3808 -60.8850
8.0970 15.1124 15.0868 -178.3640 -2.0749 -178.0660 0.0000 0.0000 0.0000 -18.7302 -14.4698 -17.9450 5.1007 13.4963 41.2561 2.1451 1.1871 -28.1539 3.1001 -10.8553 -31.7935 0.0000 0.0000 0.0000 27.3958 8.5744 -14.4767 -3.6065 -11.6174 34.3917 -0.7953 -12.6113 -25.7195 -0.0396 1.2838 -3.5301 0.8013 1.2130 13.0778 -0.5238 1.7046 -3.4917 -1.4038 0.7314 -11.1271 -6.4677 -3.6752 -6.9906 6.0444 -4.6253 2.0881 2.9270 -2.2308 2.2400 0.0000 0.0000 0.0000 -85.9653 6.7852 37.6245 27.0081 -38.1869 -9.5041 -0.0000 -0.0000 9.9516 9.4926 -36.5916 -5.6922 -7.1250 0.0000 -0.0000 -12.8935 -6.1680 14.5599 0.0000 0.0000 0.0000 83.8002 -3.9866 49.7271 -24.0490 35.2160 -7.7348 0.0000 0.0000 16.0984 -14.0220 -54.5418 11.4982 7.1250 -0.0000 -0.0000 72.4137 -76.8707 -59.1574
8.0908 15.1516 15.0595 -178.3620 -1.8419 -178.2720 0.0000 0.0000 0.0000 -18.9292 -14.3308 -16.9224 4.8361 13.1968 40.1095 2.0444 1.7085 -27.6905 2.9479 -10.6102 -30.9764 0.0000 0.0000 0.0000 27.4657 8.5943 -13.4658 -3.3783 -11.2836 33.2425 -0.6905 -12.8695 -25.1310 -0.0481 1.4155 -3.8928 0.8228 1.2316 12.9721 -0.5366 1.7306 -3.5142 -1.4329 0.7420 -11.0878 -6.5149 -3.6003 -6.9619 6.0628 -4.5308 2.4684 2.9485 -2.1817 2.3578 0.0000 -0.0000 0.0000 -86.0111 6.8780 37.4777 26.9993 -38.1785 -9.4987 -0.0000 -0.0000 9.5510 10.0253 -36.3639 -5.9837 -7.1250 0.0000 -0.0000 -12.5905 -6.0247 14.1728 0.0000 -0.0000 0.0000 83.8629 -4.0921 50.1638 -24.2047 35.3800 -7.8248 0.0000 0.0000 15.6161 -14.0704 -53.7670 11.4292 7.1250 -0.0000 -0.0000 69.1195 -76.7293 -55.9130
8.0854 15.1911 15.0325 -178.4220 -1.5285 -178.3970 0.0000 0.0000 0.0000 -19.1647 -14.1229 -15.9723 4.5742 12.8876 38.9493 1.9657 2.1813 -27.3541 2.8371 -10.4266 -30.3695 0.0000 0.0000 0.0000 27.4624 8.6803 -12.4928 -3.1479 -10.9307 32.0465 -0.6018 -13.0663 -24.5963 -0.0512 1.4603 -4.0164 0.7926 1.3168 12.7998 -0.5932 1.8309 -3.5899 -1.4956 0.7888 -11.0667 -6.4995 -3.6190 -7.0022 5.9644 -4.5606 2.9654 2.9116 -2.1959 2.5302 -0.0000 -0.0000 0.0000 -86.0997 7.0655 37.2521 26.9293 -38.1117 -9.4555 -0.0000 -0.0000 9.2973 10.2489 -36.0948 -6.0802 -7.1250 0.0000 -0.0000 -12.4467 -5.7962 13.9587 -0.0000 -0.0000 0.0000 83.9687 -4.3011 50.5062 -24.3290 35.5103 -7.8969 0.0000 0.0000 14.9950 -15.0853 -52.7456 12.1091 7.1250 -0.0000 -0.0000 64.5049 -76.8485 -51.7951
8.0777 15.2292 15.0045 -178.5000 -1.1946 -178.4860 0.0000 0.0000 0.0000 -19.4136 -13.9569 -15.0286 4.3147 12.5679 37.7716 1.9002 2.6603 -27.1111 2.7425 -10.2660 -29.8426 0.0000 0.0000 0.0000 27.4486 8.9276 -11.4516 -2.9187 -10.5623 30.8175 -0.5300 -13.2736 -24.2051 -0.0474 1.4055 -3.8652 0.7791 1.4075 12.5112 -0.6751 1.9378 -3.6265 -1.5912 0.8384 -10.9308 -6.4214 -3.6142 -7.0620 5.8661 -4.5634 3.3824 2.8639 -2.1969 2.6759 0.0000 0.0000 0.0000 -86.1203 7.1970 37.0107 26.8425 -38.0285 -9.4019 -0.0000 -0.0000 8.9995 10.1401 -36.0500 -6.0083 -7.1250 0.0000 -0.0000 -12.5005 -5.7364 14.0102 0.0000 0.0000 0.0000 84.1785 -4.4891 50.4725 -24.5030 35.6917 -7.9982 0.0000 0.0000 14.9730 -14.0970 -52.6264 11.2862 7.1250 -0.0000 -0.0000 64.4411 -76.4246 -51.2901
8.0708 15.2692 14.9760 -178.4850 -0.8268 -178.6240 0.0000 0.0000 0.0000 -19.5775 -13.8135 -14.0100 4.0565 12.2352 36.5693 1.8255 3.3151 -26.8901 2.7241 -10.2345 -29.7394 0.0000 0.0000 0.0000 27.5557 9.2349 -10.3201 -2.6941 -10.1826 29.5700 -0.4545 -13.5029 -23.7975 -0.0369 1.2396 -3.4083 0.8095 1.4742 12.2886 -0.7096 2.0259 -3.6592 -1.6576 0.8778 -10.8303 -6.3519 -3.5405 -7.0386 5.8338 -4.4809 3.7169 2.8457 -2.1556 2.7756 -0.0000 0.0000 0.0000 -86.1437 7.2927 36.6403 26.7229 -37.9137 -9.3283 -0.0000 -0.0000 8.6863 9.8635 -36.2754 -5.8736 -7.1250 0.0000 -0.0000 -12.6683 -5.9150 14.2430 -0.0000 0.0000 0.0000 84.3890 -4.7273 50.7304 -24.6595 35.8539 -8.0896 0.0000 0.0000 14.1010 -14.6969 -52.3882 11.7376 7.1250 -0.0000 -0.0000 63.2157 -76.5820 -50.3477
8.0642 15.3094 14.9481 -178.4720 -0.4322 -178.7430 0.0000 0.0000 0.0000 -19.7396 -13.7180 -12.9804 3.7995 11.8887 35.3394 1.7546 3.9121 -26.6799 2.7259 -10.2375 -29.7492 0.0000 0.0000 0.0000 27.6503 9.5045 -9.2168 -2.4730 -9.7886 28.2947 -0.3750 -13.7071 -23.3154 -0.0290 1.0995 -3.0225 0.8331 1.5421 12.1388 -0.7304 2.1152 -3.7748 -1.7096 0.9158 -10.8661 -6.3419 -3.4573 -6.8855 5.8344 -4.3909 4.0759 2.8519 -2.1128 2.8623 0.0000 0.0000 0.0000 -86.2288 7.5097 36.2013 26.5065 -37.7045 -9.1957 -0.0000 -0.0000 8.5673 9.6096 -36.1761 -5.7071 -7.1250 0.0000 -0.0000 -12.7944 -5.7816 14.3649 0.0000 0.0000 0.0000 84.5572 -5.0483 50.9349 -24.7368 35.9337 -8.1349 0.0000 0.0000 13.6933 -14.9216 -52.2201 11.8938 7.1250 -0.0000 -0.0000 62.4305 -76.6129 -49.6729
8.0568 15.3446 14.9161 -178.5150 -0.1622 -178.8240 0.0000 0.0000 0.0000 -19.9515 -13.6763 -11.9365 3.5412 11.5235 34.0665 1.6981 4.4026 -26.5277 2.6323 -10.0746 -29.2188 0.0000 0.0000 0.0000 27.6799 9.6740 -8.1222 -2.2507 -9.3699 26.9595 -0.3017 -13.9229 -22.8921 -0.0236 0.9927 -2.7287 0.8061 1.5875 11.8469 -0.7458 2.1647 -3.8756 -1.7129 0.9398 -10.8040 -6.4917 -3.3829 -6.6813 5.9788 -4.3121 4.4148 2.9380 -2.0757 2.9443 0.0000 -0.0000 0.0000 -86.2901 7.8140 35.9124 26.3105 -37.5136 -9.0761 -0.0000 -0.0000 8.4938 9.4064 -35.4678 -5.4907 -7.1250 0.0000 -0.0000 -12.8421 -5.0644 14.2752 0.0000 -0.0000 0.0000 84.6602 -5.3327 51.0890 -24.6805 35.8757 -8.1019 0.0000 0.0000 13.5424 -14.8682 -52.0031 11.8167 7.1250 -0.0000 -0.0000 61.5932 -76.5161 -48.8220
8.0511 15.3828 14.8861 -178.6340 -0.0474 -178.8880 0.0000 0.0000 0.0000 -20.2369 -13.7487 -10.8793 3.2828 11.1394 32.7513 1.6300 4.9474 -26.3288 2.5710 -9.9658 -28.8661 0.0000 0.0000 0.0000 27.6247 9.7496 -7.0501 -2.0309 -8.9302 25.5771 -0.2337 -14.1632 -22.5401 -0.0153 0.7982 -2.1937 0.6070 1.5991 11.4154 -0.7279 2.1454 -3.8835 -1.5614 0.9475 -10.5651 -6.6663 -3.3070 -6.6550 6.1121 -4.2214 4.8002 3.0252 -2.0317 3.0759 0.0000 0.0000 0.0000 -86.3374 8.0101 35.7361 26.1989 -37.4044 -9.0082 -0.0000 -0.0000 8.3173 10.5107 -36.1368 -6.2439 -7.1250 0.0000 -0.0000 -12.3111 -5.8761 13.8150 0.0000 0.0000 0.0000 84.7167 -5.4157 51.1725 -24.5404 35.7305 -8.0199 0.0000 0.0000 13.1386 -14.7153 -51.5362 11.6203 7.1250 -0.0000 -0.0000 59.8477 -76.2810 -47.0278
8.0465 15.4277 14.8571 -178.7770 0.1362 -178.9290 0.0000 0.0000 0.0000 -20.5625 -13.9125 -9.7897 3.0295 10.7427 31.4168 1.5431 5.6148 -26.0719 2.5298 -9.8918 -28.6271 0.0000 0.0000 0.0000 27.5266 9.8972 -5.9796 -1.8168 -8.4736 24.1622 -0.1453 -14.4937 -22.0977 -0.0130 0.7367 -2.0245 0.3650 1.5990 10.9902 -0.7307 2.1605 -3.8851 -1.4196 0.9963 -10.3234 -6.6550 -3.2288 -6.7982 6.0760 -4.1267 5.2682 3.0183 -1.9854 3.2559 0.0000 -0.0000 0.0000 -86.3808 8.0551 35.4950 25.9637 -37.1729 -8.8657 -0.0000 -0.0000 8.2411 10.6557 -36.0186 -6.3136 -7.1250 0.0000 -0.0000 -12.2225 -5.7829 13.6932 0.0000 -0.0000 0.0000 84.8207 -5.4967 51.3371 -24.4262 35.6117 -7.9534 0.0000 0.0000 12.3714 -14.3984 -51.1638 11.3085 7.1250 -0.0000 -0.0000 58.6234 -76.0076 -45.6712
8.0407 15.4705 14.8199 -178.8690 0.4923 -178.9860 0.0000 0.0000 0.0000 -20.8584 -13.9660 -8.6480 2.7890 10.3454 30.1026 1.4614 6.3199 -25.8897 2.4844 -9.8096 -28.3622 0.0000 0.0000 0.0000 27.4954 10.1318 -4.8241 -1.6119 -8.0061 22.7327 -0.0182 -14.9626 -21.4353 -0.0239 0.9972 -2.7410 0.2914 1.6717 10.6638 -0.7948 2.2478 -3.9886 -1.4550 1.0445 -10.2430 -6.6276 -3.1447 -6.8860 6.0856 -4.0416 5.8621 3.0257 -1.9449 3.4721 -0.0000 -0.0000 0.0000 -86.3371 8.2859 35.2060 25.6687 -36.8797 -8.6881 -0.0000 -0.0000 8.2946 10.4360 -35.7218 -6.1378 -7.1250 0.0000 -0.0000 -12.3124 -5.4609 13.7360 -0.0000 -0.0000 0.0000 85.0509 -5.9035 51.4061 -24.3501 35.5323 -7.9091 0.0000 0.0000 12.1560 -13.6069 -51.3900 10.7106 7.1250 -0.0000 -0.0000 59.9388 -75.7913 -46.6046
